<?xml version="1.0" encoding="utf-8"?>
<!-- Generator: Adobe Illustrator 24.3.0, SVG Export Plug-In . SVG Version: 6.00 Build 0)  -->
<svg version="1.1" xmlns="http://www.w3.org/2000/svg" xmlns:xlink="http://www.w3.org/1999/xlink" x="0px" y="0px"
	 viewBox="0 0 609.91 187.39" style="enable-background:new 0 0 609.91 187.39;" xml:space="preserve">
<style type="text/css">
	.st0{fill:none;}
	.st1{fill:#A0519F;}
	.st2{font-family:'Ubuntu-Title';}
	.st3{font-size:109.5378px;}
	.st4{letter-spacing:10;}
	.st5{fill:#FFFFFF;}
	.st6{fill:#A0519F;stroke:#A0519F;stroke-linejoin:bevel;stroke-miterlimit:10;}
	.st7{stroke:#000000;stroke-width:2;stroke-linecap:round;stroke-linejoin:round;stroke-miterlimit:10;}
	.st8{display:none;}
	.st9{display:inline;fill:#FFFFFF;}
	.st10{display:inline;fill:none;}
	.st11{display:inline;fill:#A0519F;}
	.st12{font-size:36px;}
	.st13{display:inline;}
	.st14{stroke:#000000;stroke-width:3;stroke-linecap:round;stroke-linejoin:round;stroke-miterlimit:10;}
</style>
<g id="Layer_2">
	<rect x="10.1" y="88.65" class="st0" width="562.83" height="109.54"/>
	<text transform="matrix(1 0 0 1 10.1013 160.9488)"><tspan x="0" y="0" class="st1 st2 st3">DeviseKey</tspan><tspan x="422.37" y="0" class="st1 st2 st3 st4">s</tspan><tspan x="478.67" y="0" class="st1 st2 st3">_</tspan></text>
	<g>
		<g>
			<circle class="st1" cx="562.13" cy="46.66" r="40.58"/>
			<circle class="st5" cx="562.13" cy="46.66" r="28.27"/>
		</g>
		<polygon class="st6" points="524.32,48.15 507.07,99.72 518.24,101.71 534.59,56.52 		"/>
		<polygon class="st7" points="514.59,96.19 544.8,107.74 549.8,132.4 493.3,115.22 		"/>
		<polygon class="st6" points="567.16,81.48 536.56,119.26 548.64,123.71 583.79,79.34 		"/>
	</g>
</g>
<g id="Logo" class="st8">
	<rect x="-138.69" y="181.83" class="st9" width="120" height="120"/>
	<rect x="-0.88" y="64.64" class="st10" width="216" height="36"/>
	<text transform="matrix(1 0 0 1 -0.8797 88.3986)" class="st11 st2 st12">DeviseKeys_</text>
	<g class="st13">
		<circle class="st1" cx="102.58" cy="2.99" r="30.12"/>
		<circle class="st5" cx="102.58" cy="2.99" r="20.98"/>
	</g>
	<polygon class="st11" points="74.1,12.81 47.7,43.35 54.8,47.86 78.78,21.46 	"/>
	<polygon class="st11" points="102.58,33.12 81.59,59.49 92.08,63.36 115.23,30.34 	"/>
	<polygon class="st13" points="57.08,39.31 83.83,49.54 88.26,71.38 38.22,56.17 	"/>
	<rect x="-5.76" y="383.23" class="st13" width="205.7" height="52.77"/>
	<rect x="7.23" y="256.55" class="st10" width="184.98" height="36"/>
	<text transform="matrix(1 0 0 1 7.2288 280.3106)" class="st13"><tspan x="0" y="0" class="st1 st2 st12">DeviseKey</tspan><tspan x="138.81" y="0" class="st1 st2 st12" style="letter-spacing:3;">s</tspan><tspan x="157.31" y="0" class="st1 st2 st12">_</tspan></text>
	<rect x="9.97" y="394.02" class="st10" width="184.98" height="36"/>
	<text transform="matrix(1 0 0 1 9.9699 417.7787)" class="st13"><tspan x="0" y="0" class="st2 st12" style="fill:#75CEDC;">DeviseKey</tspan><tspan x="138.81" y="0" class="st2 st12" style="fill:#75CEDC; letter-spacing:3;">s</tspan><tspan x="157.31" y="0" class="st2 st12" style="fill:#75CEDC;">_</tspan></text>
	<rect x="12.97" y="394.08" class="st10" width="184.98" height="36"/>
	<text transform="matrix(1 0 0 1 12.9699 417.8426)" class="st13"><tspan x="0" y="0" class="st2 st12" style="fill:#B21F24;">DeviseKey</tspan><tspan x="138.81" y="0" class="st2 st12" style="fill:#B21F24; letter-spacing:3;">s</tspan><tspan x="157.31" y="0" class="st2 st12" style="fill:#B21F24;">_</tspan></text>
	<rect x="14.97" y="395.15" class="st10" width="184.98" height="36"/>
	<text transform="matrix(1 0 0 1 14.9699 418.9063)" class="st13"><tspan x="0" y="0" class="st2 st12" style="fill:#BA54A0;">DeviseKey</tspan><tspan x="138.81" y="0" class="st2 st12" style="fill:#BA54A0; letter-spacing:3;">s</tspan><tspan x="157.31" y="0" class="st2 st12" style="fill:#BA54A0;">_</tspan></text>
	<g class="st13">
		<g>
			<circle class="st1" cx="-68.09" cy="219.09" r="25.83"/>
			<circle class="st5" cx="-68.09" cy="219.09" r="17.99"/>
		</g>
		<polygon class="st6" points="-92.15,220.03 -103.13,252.86 -96.02,254.12 -85.62,225.36 		"/>
		<polygon class="st14" points="-98.34,250.61 -79.12,257.96 -75.93,273.66 -111.89,262.72 		"/>
		<polygon class="st6" points="-64.88,241.25 -84.36,265.29 -76.67,268.13 -54.3,239.89 		"/>
	</g>
	<g class="st13">
		<g>
			<circle class="st1" cx="188.65" cy="242.75" r="13.34"/>
			<circle class="st5" cx="188.65" cy="242.75" r="9.29"/>
		</g>
		<polygon class="st6" points="176.23,243.24 170.56,260.19 174.23,260.84 179.6,245.99 		"/>
		<polygon class="st7" points="173.03,259.03 182.96,262.82 184.6,270.93 166.03,265.28 		"/>
		<polygon class="st6" points="190.31,254.19 180.25,266.61 184.22,268.07 195.77,253.49 		"/>
	</g>
	<text transform="matrix(1 0 0 1 44.6299 352.2521)" class="st13 st2" style="font-size:12px;">Devisekeys</text>
</g>
</svg>
